# xmcd
#
# Track frame offsets:
#	150
#	18037
#	34514
#	54135
#	67779
#	79228
#	102734
#	119826
#	135077
#	147611
#	167692
#
# Disc length: 2436 seconds
#
# Revision: 1
# Processed by: cddbd v1.4PL0 Copyright (c) Steve Scherf et al.
# Submitted via: CDmax 1.8
#
DISCID=8b09820b
DTITLE=marty hall - who's been talkin'?
DYEAR=1998
DGENRE=Blues
TTITLE0=tick tock
TTITLE1=can't judge a book by it's cover
TTITLE2=who's been talkin'?
TTITLE3=words of wisdom
TTITLE4=that's why i love you like i do
TTITLE5=can't let it go
TTITLE6=anything for your love
TTITLE7=matching pair
TTITLE8=misbehavin'
TTITLE9=i've got dreams to remember
TTITLE10=one of a kind
EXTD=
EXTT0=
EXTT1=
EXTT2=
EXTT3=
EXTT4=
EXTT5=
EXTT6=
EXTT7=
EXTT8=
EXTT9=
EXTT10=
PLAYORDER=
